<svg xmlns="http://www.w3.org/2000/svg" width="1600" height="1000" viewBox="0 0 1600 1000">
  <defs>
    <linearGradient id="page" x1="0" y1="0" x2="0" y2="1">
      <stop offset="0" stop-color="#0d1117"/><stop offset="1" stop-color="#161b22"/>
    </linearGradient>
    <linearGradient id="wall" x1="0" y1="0" x2="1" y2="1">
      <stop offset="0" stop-color="#1a2740"/><stop offset="0.5" stop-color="#0f1a30"/><stop offset="1" stop-color="#0a1120"/>
    </linearGradient>
    <linearGradient id="bar" x1="0" y1="0" x2="0" y2="1">
      <stop offset="0" stop-color="#11213d"/><stop offset="1" stop-color="#0d1a30"/>
    </linearGradient>
    <linearGradient id="alu" x1="0" y1="0" x2="0" y2="1">
      <stop offset="0" stop-color="#c9ccd1"/><stop offset="1" stop-color="#9aa0a8"/>
    </linearGradient>
    <radialGradient id="iris" cx="0.42" cy="0.4" r="0.6">
      <stop offset="0" stop-color="#ff6a5a"/><stop offset="0.7" stop-color="#ef4b3c"/><stop offset="1" stop-color="#d0331f"/>
    </radialGradient>
    <filter id="sh" x="-20%" y="-20%" width="140%" height="140%">
      <feDropShadow dx="0" dy="24" stdDeviation="34" flood-color="#000" flood-opacity="0.45"/>
    </filter>
    <clipPath id="halfLid"><rect x="-34" y="0" width="68" height="22"/></clipPath>
  </defs>

  <rect width="1600" height="1000" fill="url(#page)"/>

  <!-- laptop -->
  <g filter="url(#sh)">
    <!-- screen bezel -->
    <rect x="300" y="150" width="1000" height="640" rx="26" fill="#0b0d12" stroke="#2b2f38" stroke-width="3"/>
    <circle cx="800" cy="172" r="4" fill="#22262e"/>
    <!-- screen content -->
    <rect x="318" y="188" width="964" height="584" rx="10" fill="url(#wall)"/>

    <!-- menu bar -->
    <rect x="318" y="188" width="964" height="40" rx="10" fill="url(#bar)"/>
    <rect x="318" y="214" width="964" height="14" fill="url(#bar)"/>
    <!-- left menus -->
    <circle cx="345" cy="208" r="7" fill="#e6e8ea"/>
    <rect x="368" y="203" width="46" height="10" rx="3" fill="#e6e8ea" opacity="0.9"/>
    <rect x="430" y="203" width="34" height="10" rx="3" fill="#aeb3ba" opacity="0.7"/>
    <rect x="480" y="203" width="34" height="10" rx="3" fill="#aeb3ba" opacity="0.7"/>
    <!-- right status cluster -->
    <g fill="#cfd3d8" opacity="0.85">
      <rect x="1030" y="201" width="16" height="14" rx="2"/>
      <circle cx="1072" cy="208" r="7"/>
      <rect x="1100" y="201" width="18" height="14" rx="3"/>
    </g>
    <rect x="1200" y="202" width="60" height="12" rx="3" fill="#e6e8ea"/>
    <!-- OUR red eye icon, live in the menu bar -->
    <g transform="translate(988,208)">
      <path d="M-15 0 Q0 -12 15 0 Q0 12 -15 0 Z" fill="none" stroke="#ef4b3c" stroke-width="3.4" stroke-linejoin="round"/>
      <circle cx="0" cy="0" r="6.4" fill="url(#iris)"/>
    </g>

    <!-- CENTER: the two mode icons, small -->
    <g transform="translate(800,490)">
      <!-- left: open red eye (display on) -->
      <g transform="translate(-120,0)">
        <path d="M-34 0 Q0 -24 34 0 Q0 24 -34 0 Z" fill="none" stroke="#ef4b3c" stroke-width="7" stroke-linejoin="round"/>
        <circle cx="0" cy="0" r="13" fill="url(#iris)"/>
      </g>
      <!-- right: half-shut red eye (display off, awake) -->
      <g transform="translate(120,0)">
        <line x1="-34" y1="0" x2="34" y2="0" stroke="#ef4b3c" stroke-width="7" stroke-linecap="round"/>
        <path d="M-34 0 Q0 22 34 0" fill="none" stroke="#ef4b3c" stroke-width="7" stroke-linejoin="round"/>
        <circle cx="0" cy="4" r="11" fill="url(#iris)" clip-path="url(#halfLid)"/>
      </g>
    </g>

    <!-- hinge / base -->
    <rect x="300" y="786" width="1000" height="10" rx="4" fill="#2b2f38"/>
    <path d="M232 796 L1368 796 L1400 858 Q1400 872 1384 872 L216 872 Q200 872 200 858 Z" fill="url(#alu)"/>
    <rect x="690" y="796" width="220" height="14" rx="7" fill="#7f858d"/>
  </g>
</svg>
